<mxfile host="app.diagrams.net" agent="Mozilla/5.0 (Windows NT 10.0; Win64; x64) AppleWebKit/537.36 (KHTML, like Gecko) Chrome/129.0.0.0 Safari/537.36 Edg/129.0.0.0" version="24.7.17">
  <diagram id="a45cf8ec-cd66-6f27-3ac3-be6e809c9e4a" name="Page-1">
    <mxGraphModel dx="3178" dy="1715" grid="1" gridSize="10" guides="1" tooltips="1" connect="1" arrows="1" fold="1" page="1" pageScale="1" pageWidth="827" pageHeight="1169" background="none" math="0" shadow="0">
      <root>
        <mxCell id="0" />
        <mxCell id="1" parent="0" />
        <mxCell id="oLcMOep0eMBUiPj0TahM-32" value="" style="group" vertex="1" connectable="0" parent="1">
          <mxGeometry x="40" y="255" width="590" height="850" as="geometry" />
        </mxCell>
        <mxCell id="7Se1nO7PinD7EC3BLPlt-235" value="" style="rounded=0;whiteSpace=wrap;html=1;fillColor=#fad7ac;strokeColor=#b46504;strokeWidth=20;fillStyle=auto;" parent="oLcMOep0eMBUiPj0TahM-32" vertex="1">
          <mxGeometry width="590" height="850" as="geometry" />
        </mxCell>
        <mxCell id="7Se1nO7PinD7EC3BLPlt-236" value="" style="sketch=0;points=[[0,0,0],[0.25,0,0],[0.5,0,0],[0.75,0,0],[1,0,0],[0,1,0],[0.25,1,0],[0.5,1,0],[0.75,1,0],[1,1,0],[0,0.25,0],[0,0.5,0],[0,0.75,0],[1,0.25,0],[1,0.5,0],[1,0.75,0]];outlineConnect=0;fontColor=#232F3E;fillColor=#ED7100;strokeColor=#ffffff;dashed=0;verticalLabelPosition=bottom;verticalAlign=top;align=center;html=1;fontSize=12;fontStyle=0;aspect=fixed;shape=mxgraph.aws4.resourceIcon;resIcon=mxgraph.aws4.lambda;" parent="oLcMOep0eMBUiPj0TahM-32" vertex="1">
          <mxGeometry x="260" y="715" width="70" height="70" as="geometry" />
        </mxCell>
        <mxCell id="7Se1nO7PinD7EC3BLPlt-237" value="&lt;font style=&quot;font-size: 26px;&quot;&gt;AWS Lambda&lt;/font&gt;" style="text;html=1;align=center;verticalAlign=middle;resizable=0;points=[];autosize=1;strokeColor=none;fillColor=none;" parent="oLcMOep0eMBUiPj0TahM-32" vertex="1">
          <mxGeometry x="205" y="795" width="180" height="40" as="geometry" />
        </mxCell>
        <mxCell id="oLcMOep0eMBUiPj0TahM-33" value="" style="group" vertex="1" connectable="0" parent="oLcMOep0eMBUiPj0TahM-32">
          <mxGeometry x="80" y="235" width="460" height="430" as="geometry" />
        </mxCell>
        <mxCell id="7Se1nO7PinD7EC3BLPlt-207" value="&lt;div&gt;&lt;br&gt;&lt;/div&gt;" style="rounded=0;whiteSpace=wrap;html=1;strokeWidth=20;fillColor=#1ba1e2;strokeColor=#006EAF;opacity=90;fontColor=#ffffff;" parent="oLcMOep0eMBUiPj0TahM-33" vertex="1">
          <mxGeometry width="460" height="430" as="geometry" />
        </mxCell>
        <mxCell id="7Se1nO7PinD7EC3BLPlt-216" value="" style="image;sketch=0;aspect=fixed;html=1;points=[];align=center;fontSize=12;image=img/lib/mscae/Docker.svg;" parent="oLcMOep0eMBUiPj0TahM-33" vertex="1">
          <mxGeometry x="190.27999999999997" y="330" width="79.44" height="65" as="geometry" />
        </mxCell>
        <mxCell id="7Se1nO7PinD7EC3BLPlt-231" value="" style="group" parent="oLcMOep0eMBUiPj0TahM-33" vertex="1" connectable="0">
          <mxGeometry x="30" y="25" width="130" height="95" as="geometry" />
        </mxCell>
        <mxCell id="7Se1nO7PinD7EC3BLPlt-232" value="" style="group" parent="7Se1nO7PinD7EC3BLPlt-231" vertex="1" connectable="0">
          <mxGeometry width="130.00000000000003" height="95" as="geometry" />
        </mxCell>
        <mxCell id="7Se1nO7PinD7EC3BLPlt-199" value="FastAPI&lt;br&gt;(Python)" style="whiteSpace=wrap;html=1;align=center;fillColor=#008a00;strokeColor=#005700;fontColor=#ffffff;" parent="7Se1nO7PinD7EC3BLPlt-232" vertex="1">
          <mxGeometry width="130.00000000000003" height="76" as="geometry" />
        </mxCell>
        <mxCell id="oLcMOep0eMBUiPj0TahM-47" value="&lt;div&gt;Main App Logic&lt;br&gt;(Python)&lt;/div&gt;" style="whiteSpace=wrap;html=1;align=center;fillColor=#008a00;strokeColor=#005700;fontColor=#ffffff;" vertex="1" parent="oLcMOep0eMBUiPj0TahM-33">
          <mxGeometry x="270" y="25" width="130" height="275" as="geometry" />
        </mxCell>
        <mxCell id="oLcMOep0eMBUiPj0TahM-49" style="edgeStyle=orthogonalEdgeStyle;rounded=0;orthogonalLoop=1;jettySize=auto;html=1;entryX=0;entryY=0.25;entryDx=0;entryDy=0;startArrow=classic;startFill=1;" edge="1" parent="oLcMOep0eMBUiPj0TahM-33" source="7Se1nO7PinD7EC3BLPlt-199" target="oLcMOep0eMBUiPj0TahM-47">
          <mxGeometry relative="1" as="geometry" />
        </mxCell>
        <mxCell id="oLcMOep0eMBUiPj0TahM-34" value="" style="group" vertex="1" connectable="0" parent="1">
          <mxGeometry x="710" y="255" width="310" height="590" as="geometry" />
        </mxCell>
        <mxCell id="7Se1nO7PinD7EC3BLPlt-206" value="" style="rounded=0;whiteSpace=wrap;html=1;strokeWidth=20;fillColor=#fad9d5;strokeColor=#ae4132;" parent="oLcMOep0eMBUiPj0TahM-34" vertex="1">
          <mxGeometry width="260" height="590" as="geometry" />
        </mxCell>
        <mxCell id="7Se1nO7PinD7EC3BLPlt-248" value="" style="outlineConnect=0;dashed=0;verticalLabelPosition=bottom;verticalAlign=top;align=center;html=1;shape=mxgraph.aws3.s3;fillColor=#E05243;gradientColor=none;" parent="oLcMOep0eMBUiPj0TahM-34" vertex="1">
          <mxGeometry x="88.66666666666667" y="350" width="82.66666666666667" height="90" as="geometry" />
        </mxCell>
        <mxCell id="7Se1nO7PinD7EC3BLPlt-250" value="&lt;font style=&quot;font-size: 20px;&quot;&gt;AWS S3&lt;br&gt;(Persistent Storage)&lt;/font&gt;" style="rounded=0;whiteSpace=wrap;html=1;strokeColor=none;fillColor=none;" parent="oLcMOep0eMBUiPj0TahM-34" vertex="1">
          <mxGeometry x="6.0000000000000036" y="460" width="248.00000000000003" height="80" as="geometry" />
        </mxCell>
        <mxCell id="7Se1nO7PinD7EC3BLPlt-205" value="&lt;font style=&quot;font-size: 20px;&quot;&gt;Chroma DB&lt;/font&gt;" style="rounded=0;whiteSpace=wrap;html=1;" parent="1" vertex="1">
          <mxGeometry x="760" y="290" width="180" height="120" as="geometry" />
        </mxCell>
        <mxCell id="7Se1nO7PinD7EC3BLPlt-238" value="&lt;font style=&quot;font-size: 20px;&quot;&gt;Source Files&lt;/font&gt;" style="rounded=0;whiteSpace=wrap;html=1;" parent="1" vertex="1">
          <mxGeometry x="760" y="440" width="180" height="120" as="geometry" />
        </mxCell>
        <mxCell id="7Se1nO7PinD7EC3BLPlt-227" value="" style="group;strokeWidth=10;strokeColor=#FFFFFF;" parent="1" vertex="1" connectable="0">
          <mxGeometry x="390" y="325" width="200" height="120" as="geometry" />
        </mxCell>
        <mxCell id="7Se1nO7PinD7EC3BLPlt-226" value="" style="whiteSpace=wrap;html=1;fillColor=#f0a30a;fontColor=#000000;strokeColor=#BD7000;opacity=50;" parent="7Se1nO7PinD7EC3BLPlt-227" vertex="1">
          <mxGeometry width="200" height="120" as="geometry" />
        </mxCell>
        <mxCell id="7Se1nO7PinD7EC3BLPlt-222" value="" style="html=1;verticalLabelPosition=bottom;align=center;labelBackgroundColor=#ffffff;verticalAlign=top;strokeWidth=2;strokeColor=#0080F0;shadow=0;dashed=0;shape=mxgraph.ios7.icons.storage;" parent="7Se1nO7PinD7EC3BLPlt-227" vertex="1">
          <mxGeometry x="50" y="30" width="90" height="30" as="geometry" />
        </mxCell>
        <mxCell id="7Se1nO7PinD7EC3BLPlt-224" value="&lt;font style=&quot;font-size: 16px;&quot;&gt;Lambda&lt;br&gt;Temporary Storage&lt;/font&gt;" style="text;html=1;align=center;verticalAlign=middle;whiteSpace=wrap;rounded=0;" parent="7Se1nO7PinD7EC3BLPlt-227" vertex="1">
          <mxGeometry x="10" y="80" width="180" height="30" as="geometry" />
        </mxCell>
        <mxCell id="7Se1nO7PinD7EC3BLPlt-234" value="" style="group" parent="1" vertex="1" connectable="0">
          <mxGeometry x="150" y="615" width="130" height="175" as="geometry" />
        </mxCell>
        <mxCell id="7Se1nO7PinD7EC3BLPlt-203" value="" style="rounded=0;whiteSpace=wrap;html=1;" parent="7Se1nO7PinD7EC3BLPlt-234" vertex="1">
          <mxGeometry width="130" height="174.99999999999997" as="geometry" />
        </mxCell>
        <mxCell id="oLcMOep0eMBUiPj0TahM-7" style="edgeStyle=orthogonalEdgeStyle;rounded=0;orthogonalLoop=1;jettySize=auto;html=1;entryX=0.5;entryY=0;entryDx=0;entryDy=0;startArrow=classic;startFill=1;" edge="1" parent="7Se1nO7PinD7EC3BLPlt-234" source="7Se1nO7PinD7EC3BLPlt-200" target="7Se1nO7PinD7EC3BLPlt-201">
          <mxGeometry relative="1" as="geometry" />
        </mxCell>
        <mxCell id="7Se1nO7PinD7EC3BLPlt-200" value="HTML/CSS" style="rounded=0;whiteSpace=wrap;html=1;" parent="7Se1nO7PinD7EC3BLPlt-234" vertex="1">
          <mxGeometry x="10.83" y="35" width="109.17" height="38.18" as="geometry" />
        </mxCell>
        <mxCell id="7Se1nO7PinD7EC3BLPlt-201" value="JavaScript" style="whiteSpace=wrap;html=1;" parent="7Se1nO7PinD7EC3BLPlt-234" vertex="1">
          <mxGeometry x="10.83" y="115" width="109.17" height="45" as="geometry" />
        </mxCell>
        <object label="" id="7Se1nO7PinD7EC3BLPlt-175">
          <mxCell style="verticalLabelPosition=bottom;html=1;verticalAlign=top;align=center;strokeColor=none;fillColor=#00BEF2;shape=mxgraph.azure.computer;pointerEvents=1;" parent="1" vertex="1">
            <mxGeometry x="92.5" y="30" width="235" height="150" as="geometry" />
          </mxCell>
        </object>
        <mxCell id="7Se1nO7PinD7EC3BLPlt-230" value="" style="group;strokeColor=#FFFFFF;strokeWidth=10;" parent="1" vertex="1" connectable="0">
          <mxGeometry x="110" y="325" width="200" height="120" as="geometry" />
        </mxCell>
        <mxCell id="7Se1nO7PinD7EC3BLPlt-220" value="" style="whiteSpace=wrap;html=1;fillColor=#f0a30a;fontColor=#000000;strokeColor=#BD7000;opacity=50;" parent="7Se1nO7PinD7EC3BLPlt-230" vertex="1">
          <mxGeometry width="200" height="120" as="geometry" />
        </mxCell>
        <mxCell id="7Se1nO7PinD7EC3BLPlt-218" value="Lambda Function" style="sketch=0;outlineConnect=0;fontColor=#232F3E;gradientColor=none;strokeColor=#232F3E;fillColor=#ffffff;dashed=0;verticalLabelPosition=bottom;verticalAlign=top;align=center;html=1;fontSize=12;fontStyle=0;aspect=fixed;shape=mxgraph.aws4.resourceIcon;resIcon=mxgraph.aws4.lambda_function;" parent="7Se1nO7PinD7EC3BLPlt-230" vertex="1">
          <mxGeometry x="70" y="20" width="60" height="60" as="geometry" />
        </mxCell>
        <mxCell id="oLcMOep0eMBUiPj0TahM-14" style="edgeStyle=orthogonalEdgeStyle;rounded=0;orthogonalLoop=1;jettySize=auto;html=1;entryX=0.002;entryY=0.448;entryDx=0;entryDy=0;entryPerimeter=0;startArrow=classic;startFill=1;dashed=1;strokeWidth=3;" edge="1" parent="1" source="7Se1nO7PinD7EC3BLPlt-226" target="7Se1nO7PinD7EC3BLPlt-205">
          <mxGeometry relative="1" as="geometry" />
        </mxCell>
        <mxCell id="oLcMOep0eMBUiPj0TahM-16" style="edgeStyle=orthogonalEdgeStyle;rounded=0;orthogonalLoop=1;jettySize=auto;html=1;entryX=0;entryY=0.5;entryDx=0;entryDy=0;dashed=1;startArrow=classic;startFill=1;strokeWidth=3;" edge="1" parent="1" source="7Se1nO7PinD7EC3BLPlt-226" target="7Se1nO7PinD7EC3BLPlt-238">
          <mxGeometry relative="1" as="geometry" />
        </mxCell>
        <mxCell id="oLcMOep0eMBUiPj0TahM-28" style="edgeStyle=orthogonalEdgeStyle;rounded=0;orthogonalLoop=1;jettySize=auto;html=1;entryX=0.5;entryY=0;entryDx=0;entryDy=0;startArrow=classic;startFill=1;" edge="1" parent="1" source="7Se1nO7PinD7EC3BLPlt-199" target="7Se1nO7PinD7EC3BLPlt-200">
          <mxGeometry relative="1" as="geometry" />
        </mxCell>
        <mxCell id="oLcMOep0eMBUiPj0TahM-31" style="edgeStyle=orthogonalEdgeStyle;rounded=0;orthogonalLoop=1;jettySize=auto;html=1;entryX=0.5;entryY=0;entryDx=0;entryDy=0;startArrow=classic;startFill=1;dashed=1;" edge="1" parent="1" source="7Se1nO7PinD7EC3BLPlt-175" target="7Se1nO7PinD7EC3BLPlt-220">
          <mxGeometry relative="1" as="geometry" />
        </mxCell>
        <mxCell id="oLcMOep0eMBUiPj0TahM-35" style="edgeStyle=orthogonalEdgeStyle;rounded=0;orthogonalLoop=1;jettySize=auto;html=1;entryX=0.463;entryY=0.004;entryDx=0;entryDy=0;entryPerimeter=0;startArrow=classic;startFill=1;" edge="1" parent="1" source="7Se1nO7PinD7EC3BLPlt-220" target="7Se1nO7PinD7EC3BLPlt-199">
          <mxGeometry relative="1" as="geometry" />
        </mxCell>
        <mxCell id="oLcMOep0eMBUiPj0TahM-50" style="edgeStyle=orthogonalEdgeStyle;rounded=0;orthogonalLoop=1;jettySize=auto;html=1;entryX=0.5;entryY=1;entryDx=0;entryDy=0;" edge="1" parent="1" source="oLcMOep0eMBUiPj0TahM-47" target="7Se1nO7PinD7EC3BLPlt-226">
          <mxGeometry relative="1" as="geometry" />
        </mxCell>
      </root>
    </mxGraphModel>
  </diagram>
</mxfile>
